Hugo (2011) 1080p MKV x264 AC3+DTS MultiSubs
.
Subs: Dutch, English, English FHI, French, Portuguese, Spanish, Romanian.
.
[IMG]http://img254.imageshack.us/img254/7586/jamlfaadl.jpg[/IMG]
.
Verenigde Staten
Familie / Mystery
126 minuten

geregisseerd door Martin Scorsese
met Asa Butterfield, Chloe Moretz en Sacha Baron Cohen

Parijs, 1930. Hugo Cabret is een 12-jarige wees die in de muren van een druk treinstation in Parijs woont. Sinds zijn oom spoorloos verdween, heeft hij in het geheim de zorg voor de stationsklokken op zich genomen. Dan komt hij in aanraking met een vreemd meisje en een bittere oude man die de speelgoedwinkel in het station beheert. Plotseling komen Hugo's verborgen leven en het waardevolle geheim dat hij bewaart in gevaar.

Vanaf 16 februari te zien in 46 bioscopen
Vanaf 19 juni te huur
. 
http://www.moviemeter.nl/film/78157
.
PLOT
.
Set in 1930s Paris, an orphan who lives in the walls of a train station is wrapped up in a mystery involving his late father and an automaton. 
. 
http://www.imdb.com/title/tt0970179/
.
INFO
.
NL Vertaling: SRT-TEAM
.
Format                           : Matroska
Format version                   : Version 2
File size                        : 9.31 GiB
Duration                         : 2h 6mn
Overall bit rate                 : 10.6 Mbps
Encoded date                     : UTC 2012-02-18 14:35:27
Writing application              : mkvmerge v5.2.0 ('I can't explain') built on Dec 18 2011 18:12:03
Writing library                  : libebml v1.2.3 + libmatroska v1.3.0

Video
ID                               : 1
Format                           : AVC
Format/Info                      : Advanced Video Codec
Format profile                   : High@L4.1
Format settings, CABAC           : Yes
Format settings, ReFrames        : 4 frames
Codec ID                         : V_MPEG4/ISO/AVC
Duration                         : 2h 6mn
Bit rate                         : 8 399 Kbps
Width                            : 1 920 pixels
Height                           : 1 080 pixels
Display aspect ratio             : 16:9
Frame rate                       : 23.976 fps
Color space                      : YUV
Chroma subsampling               : 4:2:0
Bit depth                        : 8 bits
Scan type                        : Progressive
Bits/(Pixel*Frame)               : 0.169
Stream size                      : 7.23 GiB (78%)
Writing library                  : x264 core 120 r2164 da19765
Encoding settings                : cabac=1 / ref=4 / deblock=1:0:0 / analyse=0x3:0x113 / me=umh / subme=8 / psy=1 / psy_rd=1.00:0.00 / mixed_ref=1 / me_range=16 / chroma_me=1 / trellis=1 / 8x8dct=1 / cqm=0 / deadzone=21,11 / fast_pskip=1 / chroma_qp_offset=-2 / threads=12 / sliced_threads=0 / nr=0 / decimate=1 / interlaced=0 / bluray_compat=0 / constrained_intra=0 / bframes=3 / b_pyramid=2 / b_adapt=2 / b_bias=0 / direct=3 / weightb=1 / open_gop=0 / weightp=2 / keyint=240 / keyint_min=24 / scenecut=40 / intra_refresh=0 / rc_lookahead=50 / rc=2pass / mbtree=1 / bitrate=8399 / ratetol=1.0 / qcomp=0.60 / qpmin=0 / qpmax=69 / qpstep=4 / cplxblur=20.0 / qblur=0.5 / ip_ratio=1.40 / aq=1:1.00
Language                         : English
Default                          : Yes
Forced                           : No

Audio #1
ID                               : 2
Format                           : DTS
Format/Info                      : Digital Theater Systems
Codec ID                         : A_DTS
Duration                         : 2h 6mn
Bit rate mode                    : Constant
Bit rate                         : 1 510 Kbps
Channel(s)                       : 6 channels
Channel positions                : Front: L C R, Side: L R, LFE
Sampling rate                    : 48.0 KHz
Bit depth                        : 24 bits
Compression mode                 : Lossy
Stream size                      : 1.33 GiB (14%)
Title                            : DTS
Language                         : English
Default                          : Yes
Forced                           : No

Audio #2
ID                               : 3
Format                           : AC-3
Format/Info                      : Audio Coding 3
Mode extension                   : CM (complete main)
Codec ID                         : A_AC3
Duration                         : 2h 6mn
Bit rate mode                    : Constant
Bit rate                         : 640 Kbps
Channel(s)                       : 6 channels
Channel positions                : Front: L C R, Side: L R, LFE
Sampling rate                    : 48.0 KHz
Bit depth                        : 16 bits
Compression mode                 : Lossy
Stream size                      : 578 MiB (6%)
Title                            : AC3
Language                         : English
Default                          : No
Forced                           : No

Text #1
ID                               : 4
Format                           : UTF-8
Codec ID                         : S_TEXT/UTF8
Codec ID/Info                    : UTF-8 Plain Text
Language                         : Dutch
Default                          : No
Forced                           : No

Text #2
ID                               : 5
Format                           : UTF-8
Codec ID                         : S_TEXT/UTF8
Codec ID/Info                    : UTF-8 Plain Text
Title                            : Engliah FHI
Language                         : English
Default                          : No
Forced                           : No

Text #3
ID                               : 6
Format                           : UTF-8
Codec ID                         : S_TEXT/UTF8
Codec ID/Info                    : UTF-8 Plain Text
Title                            : English Normal
Language                         : English
Default                          : No
Forced                           : No

Text #4
ID                               : 7
Format                           : UTF-8
Codec ID                         : S_TEXT/UTF8
Codec ID/Info                    : UTF-8 Plain Text
Language                         : French
Default                          : No
Forced                           : No

Text #5
ID                               : 8
Format                           : UTF-8
Codec ID                         : S_TEXT/UTF8
Codec ID/Info                    : UTF-8 Plain Text
Language                         : Portuguese
Default                          : No
Forced                           : No

Text #6
ID                               : 9
Format                           : UTF-8
Codec ID                         : S_TEXT/UTF8
Codec ID/Info                    : UTF-8 Plain Text
Title                            : Spanish
Default                          : No
Forced                           : No

Text #7
ID                               : 10
Format                           : UTF-8
Codec ID                         : S_TEXT/UTF8
Codec ID/Info                    : UTF-8 Plain Text
Language                         : Romanian
Default                          : No
Forced                           : No

Menu
00:00:00.000                     : en:00:00:00.000
00:09:35.533                     : en:00:09:35.533
00:17:20.665                     : en:00:17:20.665
00:23:32.911                     : en:00:23:32.911
00:30:34.541                     : en:00:30:34.541
00:38:26.262                     : en:00:38:26.262
00:47:36.270                     : en:00:47:36.270
00:55:37.543                     : en:00:55:37.543
01:03:43.695                     : en:01:03:43.695
01:12:46.862                     : en:01:12:46.862
01:19:59.169                     : en:01:19:59.169
01:27:10.100                     : en:01:27:10.100
01:33:03.495                     : en:01:33:03.495
01:42:41.280                     : en:01:42:41.280
01:53:47.779                     : en:01:53:47.779
01:59:58.441                     : en:01:59:58.441
.
Enjoy
